<svg xmlns="http://www.w3.org/2000/svg" xmlns:xlink="http://www.w3.org/1999/xlink" width="745" zoomAndPan="magnify" viewBox="0 0 558.75 113.249998" height="151" preserveAspectRatio="xMidYMid meet" version="1.0"><defs><clipPath id="0f3a3f57f9"><path d="M 1.714844 0 L 99.382812 0 L 99.382812 112.28125 L 1.714844 112.28125 Z M 1.714844 0 " clip-rule="nonzero"/></clipPath><clipPath id="001b587148"><path d="M 107.628906 0 L 184.269531 0 L 184.269531 112.28125 L 107.628906 112.28125 Z M 107.628906 0 " clip-rule="nonzero"/></clipPath><clipPath id="0c2341a3f8"><path d="M 192.460938 0 L 274.445312 0 L 274.445312 112.28125 L 192.460938 112.28125 Z M 192.460938 0 " clip-rule="nonzero"/></clipPath><clipPath id="3b6003e2c3"><path d="M 282.726562 0 L 379.679688 0 L 379.679688 112.28125 L 282.726562 112.28125 Z M 282.726562 0 " clip-rule="nonzero"/></clipPath><clipPath id="590398f258"><path d="M 387.90625 0 L 464.542969 0 L 464.542969 112.28125 L 387.90625 112.28125 Z M 387.90625 0 " clip-rule="nonzero"/></clipPath><clipPath id="002ca9ebee"><path d="M 472.734375 0 L 556.5 0 L 556.5 112 L 472.734375 112 Z M 472.734375 0 " clip-rule="nonzero"/></clipPath></defs><g clip-path="url(#0f3a3f57f9)"><path fill="#ffffff" d="M 96.929688 51.257812 L 57.875 51.257812 C 56.527344 51.257812 55.433594 52.351562 55.433594 53.699219 L 55.433594 65.902344 C 55.433594 67.25 56.527344 68.34375 57.875 68.34375 L 77.402344 68.34375 L 77.402344 70.171875 C 77.402344 83.597656 68.585938 92.75 52.996094 92.75 C 34.785156 92.75 23.703125 79.210938 23.703125 55.960938 C 23.703125 32.992188 34.527344 19.527344 52.382812 19.527344 C 64.816406 19.527344 71.027344 25.085938 75.546875 35.140625 C 75.941406 36.023438 76.808594 36.613281 77.777344 36.613281 L 95.691406 36.613281 C 96.378906 36.613281 96.921875 36.046875 96.925781 35.390625 C 96.925781 35.296875 96.917969 35.203125 96.894531 35.105469 C 91.796875 13.160156 74.894531 0 51.933594 0 C 21.441406 0 1.738281 22.019531 1.738281 56.101562 C 1.738281 90.753906 21.082031 112.277344 52.21875 112.277344 C 80.859375 112.277344 99.371094 94.234375 99.371094 66.308594 L 99.371094 53.699219 C 99.371094 52.351562 98.277344 51.257812 96.929688 51.257812 Z M 96.929688 51.257812 " fill-opacity="1" fill-rule="nonzero"/></g><g clip-path="url(#001b587148)"><path fill="#ffffff" d="M 110.21875 0 C 109.882812 0 109.554688 0.0664062 109.242188 0.195312 C 108.929688 0.324219 108.652344 0.507812 108.414062 0.746094 C 108.175781 0.988281 107.992188 1.261719 107.863281 1.574219 C 107.730469 1.886719 107.667969 2.214844 107.667969 2.550781 L 107.667969 109.726562 C 107.667969 110.0625 107.730469 110.390625 107.863281 110.703125 C 107.992188 111.015625 108.175781 111.289062 108.414062 111.53125 C 108.652344 111.769531 108.929688 111.953125 109.242188 112.082031 C 109.554688 112.210938 109.882812 112.277344 110.21875 112.277344 L 181.667969 112.277344 C 182.007812 112.277344 182.332031 112.210938 182.644531 112.082031 C 182.957031 111.953125 183.234375 111.769531 183.472656 111.53125 C 183.710938 111.289062 183.898438 111.015625 184.027344 110.703125 C 184.15625 110.390625 184.21875 110.0625 184.21875 109.726562 L 184.21875 91.863281 C 184.21875 91.523438 184.15625 91.199219 184.027344 90.886719 C 183.898438 90.574219 183.710938 90.296875 183.472656 90.058594 C 183.234375 89.820312 182.957031 89.636719 182.644531 89.507812 C 182.332031 89.375 182.007812 89.3125 181.667969 89.3125 L 133.183594 89.3125 L 133.183594 66.347656 L 179.117188 66.347656 C 179.457031 66.347656 179.78125 66.28125 180.09375 66.152344 C 180.40625 66.023438 180.683594 65.835938 180.921875 65.597656 C 181.160156 65.359375 181.34375 65.082031 181.472656 64.769531 C 181.605469 64.457031 181.667969 64.132812 181.667969 63.792969 L 181.667969 48.484375 C 181.667969 48.144531 181.605469 47.820312 181.472656 47.507812 C 181.34375 47.195312 181.160156 46.917969 180.921875 46.679688 C 180.683594 46.441406 180.40625 46.253906 180.09375 46.125 C 179.78125 45.996094 179.457031 45.933594 179.117188 45.933594 L 133.183594 45.933594 L 133.183594 22.964844 L 181.667969 22.964844 C 182.007812 22.964844 182.332031 22.902344 182.644531 22.773438 C 182.957031 22.640625 183.234375 22.457031 183.472656 22.21875 C 183.710938 21.980469 183.898438 21.703125 184.027344 21.390625 C 184.15625 21.078125 184.21875 20.753906 184.21875 20.414062 L 184.21875 2.550781 C 184.21875 2.214844 184.15625 1.886719 184.027344 1.574219 C 183.898438 1.261719 183.710938 0.988281 183.472656 0.746094 C 183.234375 0.507812 182.957031 0.324219 182.644531 0.195312 C 182.332031 0.0664062 182.007812 0 181.667969 0 Z M 112.769531 5.105469 L 179.117188 5.105469 L 179.117188 17.863281 L 130.632812 17.863281 C 130.296875 17.863281 129.96875 17.925781 129.65625 18.058594 C 129.34375 18.1875 129.066406 18.371094 128.828125 18.609375 C 128.589844 18.847656 128.40625 19.125 128.277344 19.4375 C 128.144531 19.75 128.082031 20.074219 128.082031 20.414062 L 128.082031 48.484375 C 128.082031 48.820312 128.144531 49.148438 128.277344 49.460938 C 128.40625 49.773438 128.589844 50.046875 128.828125 50.289062 C 129.066406 50.527344 129.34375 50.710938 129.65625 50.839844 C 129.96875 50.96875 130.296875 51.035156 130.632812 51.035156 L 176.566406 51.035156 L 176.566406 61.242188 L 130.632812 61.242188 C 130.296875 61.242188 129.96875 61.308594 129.65625 61.4375 C 129.34375 61.566406 129.066406 61.75 128.828125 61.988281 C 128.589844 62.230469 128.40625 62.503906 128.277344 62.816406 C 128.144531 63.128906 128.082031 63.457031 128.082031 63.792969 L 128.082031 91.863281 C 128.082031 92.203125 128.144531 92.527344 128.277344 92.839844 C 128.40625 93.152344 128.589844 93.429688 128.828125 93.667969 C 129.066406 93.90625 129.34375 94.089844 129.65625 94.222656 C 129.96875 94.351562 130.296875 94.414062 130.632812 94.414062 L 179.117188 94.414062 L 179.117188 107.175781 L 112.769531 107.175781 Z M 112.769531 5.105469 " fill-opacity="1" fill-rule="nonzero"/></g><g clip-path="url(#0c2341a3f8)"><path fill="#ffffff" d="M 233.433594 0 C 210.902344 0 192.632812 18.941406 192.632812 42.304688 C 192.632812 65.671875 207.453125 67.367188 233.433594 112.277344 C 259.335938 67.367188 274.238281 65.683594 274.238281 42.304688 C 274.238281 18.929688 255.96875 0 233.433594 0 Z M 233.433594 58.292969 C 232.40625 58.273438 231.386719 58.15625 230.378906 57.933594 C 229.371094 57.714844 228.394531 57.398438 227.449219 56.984375 C 226.503906 56.574219 225.609375 56.074219 224.761719 55.484375 C 223.917969 54.894531 223.136719 54.230469 222.421875 53.488281 C 221.703125 52.746094 221.070312 51.941406 220.511719 51.074219 C 219.953125 50.207031 219.488281 49.292969 219.109375 48.335938 C 218.730469 47.375 218.449219 46.386719 218.269531 45.375 C 218.085938 44.359375 218 43.335938 218.019531 42.304688 C 218.003906 41.277344 218.085938 40.253906 218.269531 39.238281 C 218.453125 38.226562 218.734375 37.238281 219.113281 36.28125 C 219.488281 35.324219 219.957031 34.410156 220.515625 33.542969 C 221.074219 32.675781 221.707031 31.871094 222.425781 31.128906 C 223.140625 30.390625 223.921875 29.722656 224.765625 29.136719 C 225.613281 28.546875 226.507812 28.046875 227.453125 27.636719 C 228.398438 27.226562 229.375 26.910156 230.378906 26.6875 C 231.386719 26.46875 232.40625 26.347656 233.433594 26.328125 C 234.464844 26.347656 235.484375 26.46875 236.492188 26.6875 C 237.496094 26.910156 238.472656 27.226562 239.417969 27.636719 C 240.363281 28.046875 241.257812 28.546875 242.105469 29.136719 C 242.949219 29.722656 243.730469 30.390625 244.445312 31.128906 C 245.160156 31.871094 245.796875 32.675781 246.355469 33.542969 C 246.914062 34.410156 247.378906 35.324219 247.757812 36.28125 C 248.136719 37.238281 248.417969 38.226562 248.601562 39.238281 C 248.785156 40.253906 248.867188 41.277344 248.851562 42.304688 C 248.867188 43.335938 248.785156 44.359375 248.601562 45.375 C 248.417969 46.386719 248.140625 47.375 247.761719 48.335938 C 247.382812 49.292969 246.917969 50.207031 246.359375 51.074219 C 245.800781 51.941406 245.164062 52.746094 244.449219 53.488281 C 243.734375 54.230469 242.953125 54.894531 242.105469 55.484375 C 241.261719 56.074219 240.363281 56.574219 239.421875 56.984375 C 238.476562 57.398438 237.5 57.714844 236.492188 57.933594 C 235.484375 58.15625 234.464844 58.273438 233.433594 58.292969 Z M 233.433594 58.292969 " fill-opacity="1" fill-rule="nonzero"/></g><g clip-path="url(#3b6003e2c3)"><path fill="#ffffff" d="M 326.019531 0 L 285.28125 0 C 283.871094 0 282.730469 1.144531 282.730469 2.550781 L 282.730469 109.726562 C 282.730469 111.132812 283.871094 112.277344 285.28125 112.277344 L 326.019531 112.277344 C 360.132812 112.277344 379.699219 91.640625 379.699219 55.65625 C 379.699219 20.804688 359.628906 0 326.019531 0 Z M 323.875 94.414062 L 305.695312 94.414062 L 305.695312 17.863281 L 323.875 17.863281 C 344.539062 17.863281 356.730469 31.757812 356.730469 55.949219 C 356.730469 80.671875 344.832031 94.414062 323.875 94.414062 Z M 323.875 94.414062 " fill-opacity="1" fill-rule="nonzero"/></g><g clip-path="url(#590398f258)"><path fill="#ffffff" d="M 408.355469 0 L 390.492188 0 C 389.085938 0 387.941406 1.144531 387.941406 2.550781 L 387.941406 109.726562 C 387.941406 111.132812 389.085938 112.277344 390.492188 112.277344 L 461.941406 112.277344 C 463.351562 112.277344 464.496094 111.132812 464.496094 109.726562 L 464.496094 94.414062 C 464.496094 93.007812 463.351562 91.863281 461.941406 91.863281 L 410.90625 91.863281 L 410.90625 2.550781 C 410.90625 1.144531 409.765625 0 408.355469 0 Z M 408.355469 0 " fill-opacity="1" fill-rule="nonzero"/></g><g clip-path="url(#002ca9ebee)"><path fill="#ffffff" d="M 514.558594 0.65625 C 491.5 0.65625 472.730469 19.417969 472.730469 42.472656 C 472.730469 69.152344 498.183594 95.027344 511.84375 108.933594 L 514.558594 111.6875 L 517.257812 108.933594 C 530.933594 95.035156 556.382812 69.167969 556.382812 42.46875 C 556.382812 19.414062 537.613281 0.65625 514.558594 0.65625 Z M 526.628906 29.269531 L 508.710938 29.269531 L 508.710938 40.449219 L 525.6875 40.449219 L 525.6875 44.945312 L 508.710938 44.945312 L 508.710938 56.867188 L 526.628906 56.867188 L 526.628906 61.484375 L 503.503906 61.484375 L 503.503906 24.648438 L 526.628906 24.648438 Z M 526.628906 29.269531 " fill-opacity="1" fill-rule="nonzero"/></g></svg>