<svg xmlns="http://www.w3.org/2000/svg" version="1.1" xmlns:xlink="http://www.w3.org/1999/xlink" xmlns:svgjs="http://svgjs.dev/svgjs" viewBox="0 0 800 400"><path d="M100,183.85650634765625C107.92227172851562,189.38714853922525,128.69954935709634,215.695068359375,147.53363037109375,217.0403594970703C166.36771138509116,218.38565063476562,192.82511393229166,192.07773081461588,213.00448608398438,191.92825317382812C233.1838582356771,191.77877553304037,249.32735188802084,215.09715525309244,268.60986328125,216.14349365234375C287.8923746744792,217.18983205159506,308.96861267089844,197.45889790852866,328.6995544433594,198.20628356933594C348.4304962158203,198.95366923014322,366.6666666666667,220.47833251953125,386.9955139160156,220.6278076171875C407.32436116536456,220.77728271484375,432.73541768391925,198.9536590576172,450.6726379394531,199.10313415527344C468.609858194987,199.2526092529297,473.69208272298175,222.57099405924478,494.61883544921875,221.524658203125C515.5455881754557,220.47832234700522,549.1778462727865,190.5829645792643,576.233154296875,192.8251190185547C603.2884623209635,195.06727345784506,634.5291544596354,233.03438822428384,656.95068359375,234.9775848388672C679.3722127278646,236.92078145345053,694.6188354492188,209.11808268229166,710.7623291015625,204.4842987060547C726.9058227539062,199.85051472981772,746.6367594401041,206.72645060221353,753.8116455078125,207.1748809814453" fill="none" stroke-width="25" stroke="url(&quot;#SvgjsLinearGradient1003&quot;)" stroke-linecap="round" transform="matrix(1,0,0,1,-26.90582275390625,-9.465614318847656)" stroke-dasharray="0 0" stroke-opacity="1"></path><defs><linearGradient id="SvgjsLinearGradient1003" gradientTransform="rotate(177, 0.5, 0.5)"><stop stop-color="hsl(205, 64%, 64%)" offset="0"></stop><stop stop-color="hsl(205, 69%, 80%)" offset="1"></stop></linearGradient></defs></svg>