<svg xmlns="http://www.w3.org/2000/svg" version="1.1" xmlns:xlink="http://www.w3.org/1999/xlink" xmlns:svgjs="http://svgjs.dev/svgjs" viewBox="0 0 800 800" opacity="0.3"><g stroke-width="4" stroke="hsl(205, 69%, 50%)" fill="none"><path d="M721.2691271952775 251.2051218209631C735.8228442147924 349.57781117914806 617.722795064639 501.0866507250066 556.5357057423591 579.4775736109725C495.34861642007945 657.8684964969385 507.7489514200822 606.2386091193407 427.5710984483352 627.4815516735999C347.39324547658816 648.7244942278592 242.3661379975332 724.8430639231187 171.6820114779738 681.4436978714174C100.99788495841437 638.0443318197159 55.6478219298163 495.41691107717656 88.2872911544506 419.1645946254333C120.9267603790849 342.91227817368997 245.35342773658488 380.40673097258093 328.35146375621764 315.4325789030497C411.3494997758504 250.45842683351856 404.82001749888354 120.6693849171188 486.6778640486875 107.28866469168429C568.5357105984916 93.90794446624972 706.7154101757629 152.83243246277806 721.2691271952775 251.2051218209631C735.8228442147924 349.57781117914806 617.722795064639 501.0866507250066 556.5357057423591 579.4775736109725 "></path><path d="M699.8511833477539 261.12479053875825C713.4346525659677 352.93930060639764 603.2079400258244 494.3475508491988 546.0999899916967 567.5124122094337C488.992039957569 640.6772735696686 500.56568595757153 592.4893786839107 425.733023183941 612.316125067886C350.9003604103103 632.1428714518613 252.87506009652577 703.1868698341035 186.9032086782703 662.6807948525155C120.93135726001486 622.1747198709274 78.60463176665667 489.05579384455746 109.06813637631535 417.88696515626384C139.53164098597404 346.71813646797 255.66319718630734 381.7129590802683 333.1280308046312 321.0704171487058C410.59286442295513 260.4278752171433 404.4986809644529 139.2914360951703 480.8993377442699 126.80276388476472C557.299994524087 114.31409167435913 686.2677141295401 169.31028047111892 699.8511833477539 261.12479053875825C713.4346525659677 352.93930060639764 603.2079400258244 494.3475508491988 546.0999899916967 567.5124122094337 "></path><path d="M678.4332395002302 271.04444399776435C691.046460917143 356.30077477485804 588.6930849870099 487.60843571460214 535.6642742410341 555.5472355491058C482.6354634950585 623.4860353836098 493.38242049506084 578.7401329896917 423.89494791954667 597.1506832033831C354.4074753440326 615.5612334170744 263.38398219551834 681.5306604862993 202.12440587856685 643.9178765748247C140.86482956161535 606.3050926633501 101.56144160349703 482.6946613531494 129.8489815981801 416.6093204283052C158.13652159286318 350.5239795034611 265.9729666360298 383.01917192916653 337.90459785304483 326.70824013557285C409.83622907005997 270.3973083419791 404.177344430022 157.91347201443267 475.1208114398522 146.31684781905602C546.0642784496823 134.72022362367943 665.8200180833174 185.78811322067065 678.4332395002302 271.04444399776435C691.046460917143 356.30077477485804 588.6930849870099 487.60843571460214 535.6642742410341 555.5472355491058 "></path><path d="M657.0152956527065 280.96408219798144C668.6582692683182 359.6622336845295 574.1782299481954 480.8693053212162 525.2285584903717 543.582043629989C476.2788870325479 606.2947819387618 486.19915503255015 564.9908720366836 422.0568726551526 581.9852260800909C357.9145902777549 598.9795801234984 273.8929042945109 659.874435879706 217.3456030788634 625.1549430383449C160.79830186321584 590.4354501969837 124.5182514403374 476.3335136029523 150.62982682004485 415.3316604415576C176.74140219975232 354.329807280163 276.2827360857523 384.3253695192757 342.6811649014585 332.3460478636507C409.0795937171647 280.36672620802574 403.85600789559123 176.53549267490598 469.3422851354344 165.83091649455832C534.8285623752777 155.12634031421072 645.3723220370946 202.26593071143338 657.0152956527065 280.96408219798144C668.6582692683182 359.6622336845295 574.1782299481954 480.8693053212162 525.2285584903717 543.582043629989 "></path><path d="M635.5973518051827 290.88376617456566C646.2700776194936 363.023738370568 559.663374909381 474.13022070419754 514.7928427397092 531.6168974872393C469.92231057003744 589.1035742702809 479.01588957003946 551.2416568600427 420.21879739075825 566.819814733166C361.42170521147705 582.3979726062894 284.4018263935035 638.2182570494799 232.5668002791599 606.3920552782322C180.73177416481633 574.5658535069845 147.47506127717782 469.97241162912223 171.4106720419096 414.05404623117715C195.3462828066414 358.1356808332321 286.59250553547474 385.631612885752 347.45773194987214 337.98390136809587C408.3229583642694 290.3361898504396 403.53467136116046 195.15755911174654 463.5637588310167 185.3450309464278C523.5928463008731 175.53250278110914 624.9246259908718 218.7437939785633 635.5973518051827 290.88376617456566C646.2700776194936 363.023738370568 559.663374909381 474.13022070419754 514.7928427397092 531.6168974872393 "></path><path d="M614.1794079576591 300.8034348923608C623.8818859706689 366.3852277978175 545.1485198705666 467.39112082838983 504.3571269890467 519.6517360857005C463.56573410752696 571.9123513430111 471.8326241075288 537.4924264246126 418.38072212636405 551.6543881274522C364.9288201451993 565.8163498302915 294.91074849249605 616.5620629604646 247.78799747945646 587.6291522593303C200.66524646641687 558.6962415581961 170.43187111401818 463.6112943965031 192.19151726377436 412.77641676200756C213.95116341353054 361.9415391275121 296.9022749851972 386.9378409934394 352.2342989982857 343.6217396137519C407.56632301137415 300.3056382340644 403.2133348267297 213.77961028979797 457.785232526599 204.85913013950824C512.3571302264684 195.93864998921856 604.4769299446492 235.2216419869041 614.1794079576591 300.8034348923608C623.8818859706689 366.3852277978175 545.1485198705666 467.39112082838983 504.3571269890467 519.6517360857005 "></path><path d="M592.7614793689244 310.72307309257786C601.4937095806332 369.7466867074889 530.6336800905411 460.651990435004 493.92142649717334 507.68654416658353C457.20917290380544 554.7210978981631 464.64937390380715 523.7431654716045 416.5426621207589 536.48893100416C368.43595033771066 549.2346965367155 305.4196858502777 594.9058383538713 263.0092099385421 568.8662187228505C220.59873402680643 542.8265990918296 193.3886962096476 457.250146646306 212.97237774442817 411.49875677526006C232.55605927920874 365.747366904214 307.21205969370874 388.24403858354856 357.0108813054884 349.25954734182983C406.80970291726805 310.2750561001111 402.892013551088 232.40163095027128 452.0067214809703 224.37319881501054C501.1214294108529 216.34476667974985 584.0292491572155 251.69945947766684 592.7614793689244 310.72307309257786C601.4937095806332 369.7466867074889 530.6336800905411 460.651990435004 493.92142649717334 507.68654416658353 "></path><path d="M571.3435355214007 320.642741810373C579.1055179318085 373.10817613473836 516.1188250517266 453.91289055919617 483.4857107465108 495.7213827650447C450.85259644129496 537.5298749708932 457.46610844129646 509.99393503617443 414.7045868563647 521.323504398446C371.94306527143294 532.6530737607176 315.9286079492703 573.249644264856 278.2304071388386 550.1033157039486C240.53220632840691 526.9569871430411 216.34550604648797 450.8890294136869 233.75322296629292 410.22112730609047C251.16093988609788 369.55322519849403 317.5218291434312 389.55026669123583 361.787448353902 354.89738558748587C406.0530675643728 320.2445044837359 402.5706770166572 251.02368212832272 446.2281951765526 243.88729800809097C489.88571333644813 236.7509138878592 563.5815531109928 268.1773074860077 571.3435355214007 320.642741810373C579.1055179318085 373.10817613473836 516.1188250517266 453.91289055919617 483.4857107465108 495.7213827650447 "></path><path d="M549.925591673877 330.56238001059006C556.7173262829838 376.46963504440976 501.6039700129122 447.17376016581034 473.04999499584835 483.7561908459278C444.4960199787845 520.3386215260452 450.28284297878577 496.2446740831663 412.8665115919705 506.1580472751539C375.45018020515516 516.0714204671416 326.4375300482629 551.5934196582627 293.45160433913514 531.3403821674688C260.4656786300074 511.08734467667466 239.30231588332833 444.52788166348967 254.53406818815768 408.94346731934286C269.765820492987 373.35905297519594 327.83159859315367 390.8564642813451 366.5640154023156 360.53519331556384C405.29643221147757 330.2139223497826 402.24934048222644 269.6457027887961 440.4496688721349 263.40136668359327C478.6499972620435 257.1570305783905 543.13385706477 284.65512497677037 549.925591673877 330.56238001059006C556.7173262829838 376.46963504440976 501.6039700129122 447.17376016581034 473.04999499584835 483.7561908459278 "></path><path d="M528.5076478263533 340.4820639871743C534.3291346341591 379.83113973044834 487.0891149740977 440.4346755487917 462.6142792451858 471.79104470317816C438.13944351627396 503.1474138575645 443.0995775162751 482.4954589065254 411.0284363275763 490.992635928229C378.95729513887744 499.4898129499328 336.94645214725546 529.9372408280366 308.6728015394317 512.577494407356C280.39915093160795 495.2177479866755 262.2591257201687 438.16677968965973 275.3149134100224 407.6658531089624C288.37070109987616 377.1649265282651 338.14136804287614 392.16270764782143 371.34058245072924 366.17304682000895C404.53979685858235 340.18338599219646 401.9280039477956 288.2677692256366 434.6711425677172 282.91548113546276C467.41428118763884 277.5631930452889 522.6861610185473 301.1329882439003 528.5076478263533 340.4820639871743C534.3291346341591 379.83113973044834 487.0891149740977 440.4346755487917 462.6142792451858 471.79104470317816 "></path><path d="M507.0897192376186 350.4017021873914C511.9409582441235 383.1925986401197 472.57427519407236 433.69554515540585 452.1785787533124 459.82585278406117C431.78288231255254 485.9561604127165 435.91632731255345 468.74619795351725 409.1903763219711 475.82717880493703C382.4644253313887 482.9081596563567 347.4553895050371 508.2810162214432 323.8940139985173 493.8145608708761C300.3326384919975 479.348105520309 285.2159508157981 431.8056319394625 296.09577389067624 406.3881931222147C306.97559696555436 380.970754304967 348.45115275138767 393.46890523793064 376.1171647579319 371.8108545480869C403.78317676447614 350.15280385824315 401.6066826721539 306.8897898861099 428.89263152208855 302.42954981096506C456.17858037202325 297.9693097358202 502.2384802311137 317.610805734663 507.0897192376186 350.4017021873914C511.9409582441235 383.1925986401197 472.57427519407236 433.69554515540585 452.1785787533124 459.82585278406117 "></path><path d="M485.67177539009487 360.32137090518654C489.55276659529886 386.5540880673692 458.05942015525784 426.9564452795981 441.7428630026499 447.86069138252236C425.426305850042 468.7649374854466 428.73306185004276 454.9969675180872 407.3523010575769 460.661752199223C385.971540265111 466.3265368803588 357.96431160402966 486.624822132428 339.1152111988138 475.0516578519743C320.266110793598 463.4784935715206 308.1727606526385 425.44451470684345 316.876619112541 405.11056365304523C325.5804775724435 384.776612599247 358.76092220111013 394.7751333456179 380.8937318063455 377.44869279374296C403.0265414115809 360.12225224186795 401.28534613772314 325.5118410641614 423.11410521767084 321.9436490040455C444.9428642976186 318.37545694392963 481.7907841848909 334.0886537430038 485.67177539009487 360.32137090518654C489.55276659529886 386.5540880673692 458.05942015525784 426.9564452795981 441.7428630026499 447.86069138252236 "></path><path d="M464.2538162837821 370.24102436419264C467.164559687685 389.9155622358296 443.5445498576543 420.2173301450013 431.30713199319837 435.89551472219455C419.0697141287425 451.5736992993877 421.549781128743 441.2477218238682 405.5142105343936 445.49631033471996C389.4786399400442 449.74489884557187 368.4732184442332 464.96861278462376 354.3363931403213 456.28873957428345C340.1995678364094 447.6088663639432 331.12955523068985 419.08338221543534 337.6574490756167 403.8329189250867C344.1853429205435 388.582455634738 369.07067639204354 396.0813461945162 385.6702835959701 383.08651578060994C402.26989079989664 370.0916853667037 400.96399434450325 344.13387698342376 417.33556365446407 341.45773293833685C433.7071329644249 338.78158889324993 461.3430728798791 350.5664864925556 464.2538162837821 370.24102436419264C467.164559687685 389.9155622358296 443.5445498576543 420.2173301450013 431.30713199319837 435.89551472219455 "></path><path d="M442.83587243625834 380.16067782319874C444.77636803886037 393.2770364042901 429.02969481883986 413.4782150104045 420.87141624253593 423.9303380618666C412.71313766623194 434.38246111332876 414.3665156662323 427.4984761296491 403.67613526999935 430.33086847021696C392.98575487376644 433.1632608107849 378.9821405432258 443.31240343681947 369.5575903406179 437.52582129659265C360.13304013800996 431.7392391563658 354.0863650675302 412.72224972402717 358.43829429748143 402.5552741971281C362.79022352743266 392.388298670229 379.380445841766 397.38755904341446 390.4468506443837 388.7243387674769C401.5132554470014 380.06111849153945 400.6426578100725 362.75591290268613 411.55703735004636 360.9718168726282C422.47141689002024 359.1877208425703 440.8953768336564 367.0443192421074 442.83587243625834 380.16067782319874C444.77636803886037 393.2770364042901 429.02969481883986 413.4782150104045 420.87141624253593 423.9303380618666 "></path><path d="M421.4179438475237 390.0803465409939C422.3881916488247 396.63852583153954 414.51485503881446 406.7391151345968 410.4357157506625 411.96517666032787C406.35657646251053 417.1912381860589 407.1832654625107 413.7492456942191 401.8380752643942 415.165441864503C396.4928850662777 416.581638034787 389.49107790100743 421.6562093478043 384.77880279970344 418.76291827769086C380.0665276983995 415.8696272075774 377.04319016315964 406.3611324914081 379.21915477813525 401.27764472795855C381.39511939311086 396.19415696450903 389.69023055027753 398.69378715110173 395.2234329515864 394.362177013133C400.7566353528952 390.03056687516425 400.32133653443077 381.3779640807376 405.7785263044177 380.48591606570864C411.23571607440465 379.59386805067965 420.44769604622275 383.5221672504482 421.4179438475237 390.0803465409939C422.3881916488247 396.63852583153954 414.51485503881446 406.7391151345968 410.4357157506625 411.96517666032787 "></path></g></svg>