<svg xmlns="http://www.w3.org/2000/svg" version="1.1" xmlns:xlink="http://www.w3.org/1999/xlink" xmlns:svgjs="http://svgjs.dev/svgjs" viewBox="0 0 800 800" opacity="0.18"><g stroke-width="5" stroke="hsl(205, 69%, 50%)" fill="none"><path d="M1029.709770727365 380.1019479535162C1040.751236312124 497.4403502831817 734.0834086954619 682.9084072612509 575.5229734227835 766.3858633377117C416.9625381501053 849.8633194141721 434.30336801838075 824.3917109010767 268.6196814185091 780.7937371205264C102.93599481863771 737.1957633399763 -169.52753110965557 720.9102617511171 -219.75872225659992 557.1155891910698C-269.9899134035443 393.32091663102256 -127.13225710193518 68.31973738141374 27.509963913177444 -5.420691167701705C182.1521849282899 -79.16111971681715 313.73231219631634 122.84431567172913 522.5239386159392 203.1615321553163C731.315565035562 283.4787486389034 1018.668305142606 262.7635456238505 1029.709770727365 380.1019479535162C1040.751236312124 497.4403502831817 734.0834086954619 682.9084072612509 575.5229734227835 766.3858633377117 "></path><path d="M987.729090862468 381.4284644115629C998.0344587415761 490.9443065859175 711.8111529660248 664.0478264321155 563.8214133781917 741.9601187701455C415.83167379035865 819.8724111081754 432.0164483340824 796.0989098292862 277.378340840869 755.4074676341061C122.74023334765548 714.716025438926 -131.55905751875144 699.5162239559904 -178.44150258923287 546.6411962332797C-225.32394765971424 393.76616851056906 -91.99013511154573 90.43173454426739 52.34260450255931 21.60733456509297C196.6753441166643 -47.217065414081446 319.4834629001557 141.32134094856178 514.3556475584701 216.2840763332431C709.2278322167849 291.2468117179245 977.4237229833593 271.9126222372083 987.729090862468 381.4284644115629C998.0344587415761 490.9443065859175 711.8111529660248 664.0478264321155 563.8214133781917 741.9601187701455 "></path><path d="M945.7484720327268 382.75498086960977C955.3177422061844 484.4482628886533 689.5389582717439 645.1872456029799 552.1199143687561 717.5343742025793C414.70087046576816 789.8815028021784 429.7295896849404 767.8061087574956 286.1370612983851 730.0211981476855C142.54453291182972 692.2362875378753 -93.59052289269107 678.122186160864 -137.1242218867095 536.1668032754898C-180.65792088072794 394.21142039011545 -56.84795208600008 112.54373170712108 77.17530612709743 48.6353602978877C211.19856434019505 -15.273011111345681 325.2346746391513 159.79836622539443 506.1874175361577 229.40662051117C687.140160433164 299.0148747969455 936.1792018592689 281.06169885056624 945.7484720327268 382.75498086960977C955.3177422061844 484.4482628886533 689.5389582717439 645.1872456029799 552.1199143687561 717.5343742025793 "></path><path d="M903.7677921678296 384.0814668100785C912.6009646356367 477.95218867381095 667.266702542307 626.3266342562663 540.4183543241644 693.1085991174349C413.57000610602165 759.8905639786035 427.442670000642 739.5132771681269 294.89572072074486 704.6348981436868C162.3487714408476 669.7565191192467 -55.622049301786944 656.7281178481594 -95.80700221934245 525.6923798001214C-135.99195513689796 394.6566417520837 -21.705830095610622 134.6556983523966 102.00794671647941 75.66335551310425C225.72172352856944 16.6710126738119 330.98582534299067 178.27536098464896 498.0191264786888 242.52913417151865C665.0524276143869 306.78290735838846 894.9346197000223 290.21074494634604 903.7677921678296 384.0814668100785C912.6009646356367 477.95218867381095 667.266702542307 626.3266342562663 540.4183543241644 693.1085991174349 "></path><path d="M861.7871428205103 385.4080748208597C869.8842175826671 471.4562365292811 644.994477330448 607.4661449798652 528.7168247971506 668.6829461026031C412.43917226385315 729.8997472253409 425.1557808339219 711.2205676490707 303.65441066068274 679.2487202100007C182.1530404874436 647.2768727709306 -17.653545193304694 635.3341716057672 -54.48975203439721 515.2180783950657C-91.32595887548979 395.1019851843645 13.436322412356901 156.76778706798467 126.84061782343952 102.6914727986333C240.24491323452207 48.615158529281985 336.73700656440815 196.75247781421592 489.85086593879805 255.65176990217992C642.964725313188 314.5510619901438 853.690068058354 299.35991311243833 861.7871428205103 385.4080748208597C869.8842175826671 471.4562365292811 644.994477330448 607.4661449798652 528.7168247971506 668.6829461026031 "></path><path d="M819.8064934731913 386.7345912789066C827.1674705296973 464.960192832017 622.7222521185892 588.6055641507298 517.0152952701369 644.2572015350369C411.30833842168477 699.908838919344 422.86889166720175 682.9277665772803 312.41310060062074 653.8624507235802C201.95730953403972 624.7971348698801 20.314958915177556 613.9401338106405 -13.172501849452033 504.74368543727564C-46.65996261408162 395.54723706391087 48.57847492032448 178.8797842308383 151.6732889303995 129.71949853142803C254.7681029404746 80.55921283201775 342.4881877858255 215.22950309104863 481.6826053989073 268.7743140801067C620.8770230119891 322.3191250691648 812.4455164166852 308.50898972579614 819.8064934731913 386.7345912789066C827.1674705296973 464.960192832017 622.7222521185892 588.6055641507298 517.0152952701369 644.2572015350369 "></path><path d="M777.8258441258722 388.06113825453156C784.4507234767275 458.4641796523308 600.4500269067302 569.7450138391723 505.3137657431232 619.8314874850489C410.17750457951615 669.9179611309253 420.5820025004816 654.6349960230679 321.1717905405586 628.4762117547377C221.76157858063573 602.3174274864077 58.283463023659806 592.5461265330921 28.144748335493148 494.2693229970638C-1.9939663526734535 395.9925194610355 83.720627428292 200.99181191127013 176.50596003735956 156.74755478180083C269.2912926464271 112.50329765233158 348.239369007243 233.70655888545934 473.51434485901655 281.8968887756116C598.7893207107903 330.087218665764 771.2009647750167 317.6580968567322 777.8258441258722 388.06113825453156C784.4507234767275 458.4641796523308 600.4500269067302 569.7450138391723 505.3137657431232 619.8314874850489 "></path><path d="M735.845194778553 389.3876852301564C741.7339764237578 451.96816647264484 578.1778016948714 550.884463527615 493.6122362161095 595.4057734350608C409.04667073734777 639.9270833425064 418.2951133337615 626.3422254688555 329.9304804804965 603.0899727858954C241.56584762723173 579.8377201029352 96.25196713214206 571.1521192555438 69.46199852043839 483.79496055685183C42.672029908734714 396.43780185816 118.86277993625959 223.1038395917019 201.3386311443196 183.77561103217369C283.8144823523796 144.44738247264542 353.99055022866037 252.18361467987012 465.3460843191258 295.01946347111664C576.7016184095913 337.8553122623631 729.9564131333482 326.8072039876682 735.845194778553 389.3876852301564C741.7339764237578 451.96816647264484 578.1778016948714 550.884463527615 493.6122362161095 595.4057734350608 "></path><path d="M693.864545431234 390.71421694699234C699.0172293707881 445.4721380341697 555.9055764830124 532.0238979572687 481.91070668909583 570.9800441262837C407.9158368951794 609.9361902952986 416.00822416704113 598.049439655854 338.6891704204345 577.703718558264C261.37011667382774 557.3579974606739 134.2204712406243 549.7580967192062 110.77924870538357 473.3205828578508C87.33802617014288 396.88306899649547 154.0049324442271 245.21585201334466 226.17130225127966 210.80365202375742C298.33767205833215 176.39145203417024 359.74173145007785 270.66065521549183 457.17782377923504 308.1420229078325C554.6139161083925 345.6233906001732 688.7118614916797 335.9562958598151 693.864545431234 390.71421694699234C699.0172293707881 445.4721380341697 555.9055764830124 532.0238979572687 481.91070668909583 570.9800441262837 "></path><path d="M651.8839266014929 392.0407486638283C656.3005128353965 438.97610959569454 533.6333817887316 513.1633323869222 470.20920767966027 546.5543148175066C406.7850335705889 579.9452972480908 413.72136551789913 569.7566538428525 347.4478908779506 552.3174643306324C281.1744162380019 534.8782748184124 172.18900586668468 528.3640741828688 152.09652940790693 462.8462051588498C132.00405294912917 397.3283361348309 189.1471154697728 267.32786443498736 251.00400387581783 237.83169301534122C312.86089228186285 208.335521595695 365.49294318907346 289.13769575111354 449.0095937569225 321.2645823445484C532.5262443247716 353.3914689379833 647.4673403675893 345.1053877319621 651.8839266014929 392.0407486638283C656.3005128353965 438.97610959569454 533.6333817887316 513.1633323869222 470.20920767966027 546.5543148175066 "></path><path d="M609.9032772541738 393.3672956394533C613.5837657824268 432.48009641600856 511.36115657687265 494.3027820753649 458.5076781526466 522.1286007675185C405.6541997284205 549.954419459672 411.434476351179 541.4638832886401 356.2065808178885 526.9312253617901C300.978685284598 512.3985674349401 210.15750997516687 506.9700669053202 193.4137795928521 452.3718427186378C176.67004921053734 397.77361853195544 224.28926797774034 289.4398921154192 275.8366749827779 264.859749265714C327.3840819878154 240.27960641600885 371.24412441049094 307.6147515455243 440.8413332170318 334.38715704005335C510.4385420235726 361.1595625345824 606.2227887259207 354.25449486289807 609.9032772541738 393.3672956394533C613.5837657824268 432.48009641600856 511.36115657687265 494.3027820753649 458.5076781526466 522.1286007675185 "></path><path d="M567.9226279068546 394.6938426150782C570.867018729457 425.9840832363224 489.0889313650139 475.4422317638075 446.8061486256329 497.7028867175304C404.523365886252 519.9635416712532 409.14758718445887 513.1711127344278 364.9652707578264 501.54498639294775C320.782954331194 489.9188600514676 248.12601408364912 485.5760596277719 234.7310297777973 441.8974802784259C221.33604547194545 398.21890092908 259.4314204857079 311.55191979585095 300.6693460897379 291.8878055160868C341.90727169376794 272.22369123632274 376.9953056319083 326.0918073399351 432.673072677141 347.5097317355583C488.35083972237385 368.92765613118155 564.9782370842522 363.40360199383406 567.9226279068546 394.6938426150782C570.867018729457 425.9840832363224 489.0889313650139 475.4422317638075 446.8061486256329 497.7028867175304 "></path><path d="M525.9419785595355 396.0203895907032C528.1502716764874 419.48807005663633 466.8167061531549 456.58168145225017 435.1046190986192 473.27717266754235C403.3925320440835 489.97266388283447 406.8606980177386 484.8783421802153 373.72396069776437 476.1587474241053C340.58722337779 467.43915266799524 286.0945181921314 464.18205235022344 276.0482799627425 431.42311783821395C266.0020417333536 398.6641833262045 294.57357299367544 333.6639474762828 325.502017196698 318.91586176645967C356.43046139972046 304.16777605663657 382.7464868533258 344.5688631343458 424.5048121372503 360.6323064310633C466.26313742117486 376.6957497277807 523.7336854425837 372.5527091247701 525.9419785595355 396.0203895907032C528.1502716764874 419.48807005663633 466.8167061531549 456.58168145225017 435.1046190986192 473.27717266754235 "></path><path d="M483.96129869463823 397.3469213075391C485.4334941059394 412.99204161816124 444.5444504237179 437.72111588190376 423.4030590540274 448.8514433587652C402.26166768433694 459.9817708356266 404.5737783334404 456.5855563672139 382.4826201201241 450.7724931964739C360.39146190680793 444.9594300257338 324.0629917830355 442.78802981388594 317.3654996301096 420.948740139213C310.66800747718366 399.10945046454 329.7156949840649 355.7759598979255 350.3346577860799 345.9439027580434C370.9536205880949 336.11184561816134 388.4976375571651 363.0459036699675 416.33652107978145 373.75486586777913C444.17540460239786 384.46382806559075 482.48910328333704 381.70180099691703 483.96129869463823 397.3469213075391C485.4334941059394 412.99204161816124 444.5444504237179 437.72111588190376 423.4030590540274 448.8514433587652 "></path><path d="M441.9806493473191 398.673453024375C442.7167470529697 406.4960131796861 422.27222521185894 418.86055031155735 411.7015295270137 424.4257140499881C401.1308338421685 429.9908777884188 402.2868891667202 428.2927705542124 391.24131006006206 425.3862389688424C380.195730953404 422.4797073834724 362.03149589151775 421.39400727754844 358.6827498150548 410.47436244021196C355.33400373859183 399.5547176028755 364.8578474920324 377.88797231956823 375.16732889303995 372.9719437496272C385.4768102940475 368.05591517968617 394.2488187785826 381.5229442055892 408.16826053989075 386.87742530449503C422.08770230119893 392.23190640340084 441.2445516416685 390.850892869064 441.9806493473191 398.673453024375C442.7167470529697 406.4960131796861 422.27222521185894 418.86055031155735 411.7015295270137 424.4257140499881 "></path></g></svg>