<svg xmlns="http://www.w3.org/2000/svg" version="1.1" xmlns:xlink="http://www.w3.org/1999/xlink" xmlns:svgjs="http://svgjs.dev/svgjs" viewBox="0 0 800 800" opacity="0.5"><defs><linearGradient x1="50%" y1="0%" x2="50%" y2="100%" id="uundulate-grad"><stop stop-color="hsl(37, 99%, 67%)" stop-opacity="1" offset="45%"></stop><stop stop-color="hsl(316, 73%, 52%)" stop-opacity="1" offset="100%"></stop></linearGradient></defs><g stroke-width="2" stroke="hsl(230, 55%, 40%)" fill="none"><path d="M628.2394051213039 262.56471511679774C715.6235123702526 431.52100640762023 673.5278948717119 673.3996649815522 604.2895597353458 779.6356201692261C535.05122459898 885.8715753568999 390.10710191514636 830.8381324423985 295.8953964667471 772.4973000176335C201.68369101834782 714.1564675928685 175.2086968176862 667.0687657895942 152.07337358302908 499.59962453035325C128.93805034837203 332.13048327111267 85.64458836991906 18.027694767768537 184.8458449403933 -31.354578026722493C284.0471015108675 -80.73685082121352 540.8552978723551 93.60842382597536 628.2394051213039 262.56471511679774C715.6235123702526 431.52100640762023 673.5278948717119 673.3996649815522 604.2895597353458 779.6356201692261 "></path><path d="M613.023438676368 271.7270633733342C694.5819387753868 429.41960191143517 655.2926957767488 655.1730165804383 590.6702496494738 754.3265747556006C526.047803522199 853.4801329307629 390.766622350621 802.1155862105616 302.8356972654483 747.6641426141141C214.9047721802757 693.2126990176666 190.1947775929915 649.2641773346106 168.60180924064485 492.9596454926526C147.00884088829827 336.6551136506947 106.60160970840883 43.492511047573544 199.1894491741848 -2.597610227284747C291.7772886399607 -48.68773150214304 531.4649385773491 114.03452483523324 613.023438676368 271.7270633733342C694.5819387753868 429.41960191143517 655.2926957767488 655.1730165804383 590.6702496494738 754.3265747556006 "></path><path d="M597.8074874902211 280.8894726650269C673.5403804393101 427.31825845040635 637.0575119405748 636.9464292144806 577.050954822391 729.0175903771315C517.0443977042071 821.0887515397822 391.4261580448847 773.3931010138808 309.77601332293864 722.8310462457512C228.1258686009926 672.2689914776213 205.18087362708587 631.4596499147835 185.1302601570497 486.3197274901082C165.07964668701356 341.179805065433 127.55864630568772 68.9573883625348 213.5330686667653 26.15941860730925C299.50749102784295 -16.638551147916303 522.0745945411322 134.46068687964737 597.8074874902211 280.8894726650269C673.5403804393101 427.31825845040635 637.0575119405748 636.9464292144806 577.050954822391 729.0175903771315 "></path><path d="M582.5915363040743 290.051759886407C652.4988221032334 425.2167929190649 618.8223281044006 618.7197197782106 563.4316599953079 703.7084839283496C508.0409918862151 788.6972480784887 392.0856937391484 744.6704937468876 316.71632938042893 697.9978278070755C241.34696502170954 651.3251618672633 220.1669696611802 613.655000424644 201.65871107345453 479.67968741725133C183.15045248572886 345.7043744098588 148.51568290296655 94.42214360718356 227.87668815934586 54.916325371590744C307.23769341572523 15.410507135997932 512.6842505049153 154.88672685374905 582.5915363040743 290.051759886407C652.4988221032334 425.2167929190649 618.8223281044006 618.7197197782106 563.4316599953079 703.7084839283496 "></path><path d="M567.3755698591384 299.2141691780996C631.4572485083675 423.115449458036 600.5871290094376 600.4931324122529 549.8123499094359 678.3994995498803C499.0375708094343 756.3058666875077 392.745214174623 715.9480085502067 323.65663017913016 673.1647314387124C254.56804618363736 630.381454327218 235.1530504364855 595.8504730048168 218.1871467310703 473.03976941470694C201.2212430256551 350.2290658245972 169.4727042414563 119.88702092214481 242.22029239313736 83.67335420618474C314.96788054481846 47.45968749022467 503.29389120990936 175.31288889816318 567.3755698591384 299.2141691780996C631.4572485083675 423.115449458036 600.5871290094376 600.4931324122529 549.8123499094359 678.3994995498803 "></path><path d="M552.1596186729917 308.37651743463596C610.4156901722909 421.0140449618509 582.3519451732636 582.266484011139 536.1930550823529 653.0904541362548C490.03416499144237 723.9144242613706 393.4047498688867 687.2254623183698 330.59694623662045 648.3315740351931C267.7891426043543 609.4376857520164 250.13914647057987 578.0458845498334 234.71559764747514 466.3997903770064C219.2920488243704 354.7536962041793 190.42974083873514 145.35183720194982 256.5639118857179 112.43032200562249C322.6980829327007 79.50880680929515 493.90354717369246 195.73898990742106 552.1596186729917 308.37651743463596C610.4156901722909 421.0140449618509 582.3519451732636 582.266484011139 536.1930550823529 653.0904541362548 "></path><path d="M536.9436522280557 317.5388656911724C589.374116577425 418.91264046566585 564.1167460783006 564.0398356100252 522.573744996481 627.7814087226294C481.03074391466134 691.5229818352337 394.06427030436134 658.5029160865329 337.5372470353217 623.4984166316738C281.01022376628214 588.4939171768149 265.1252272458851 560.2412960948502 251.2440333050909 459.75981133930577C237.36283936429663 359.2783265837613 211.3867621772249 170.81665348175488 270.9075161195094 141.18728980506023C330.4282700617939 111.55792612836564 484.5131878786865 216.165090916679 536.9436522280557 317.5388656911724C589.374116577425 418.91264046566585 564.1167460783006 564.0398356100252 522.573744996481 627.7814087226294 "></path><path d="M521.7276552655417 326.70119868891976C568.332512464981 416.8112207106917 545.8815164657593 545.8131719501221 508.9544043930308 602.4723480502148C472.0272923203023 659.1315241503075 394.72376022225774 629.7803545959068 344.47751731644485 598.6652439693654C294.23127441063184 567.550133342824 280.1112775036123 542.4366923810777 267.77243844512856 453.11981704281607C255.43359938664474 363.8029417045543 232.34375299813655 196.28145450277083 285.2510898357228 169.94424234570891C338.158426673309 143.60703018864706 475.1227980661024 236.5911766671478 521.7276552655417 326.70119868891976C568.332512464981 416.8112207106917 545.8815164657593 545.8131719501221 508.9544043930308 602.4723480502148 "></path><path d="M506.51173459697304 335.86354694545616C547.2909846464825 414.70981621450665 527.6463631471635 527.5865235490082 495.33514008352597 577.1633026365894C463.0239170198886 626.7400817241705 395.38332643409956 601.0578083640698 351.4178638915132 573.8320865658461C307.4524013489269 546.6063647676224 295.0974040552848 524.6321039260944 284.3009198791115 446.4798380051154C273.50443570293817 368.32757208413636 253.3008201129935 221.74627078257583 299.59473984588146 198.70121014514666C345.8886595787694 175.65614950771754 465.7324845474636 257.0172776764057 506.51173459697304 335.86354694545616C547.2909846464825 414.70981621450665 527.6463631471635 527.5865235490082 495.33514008352597 577.1633026365894 "></path><path d="M491.2957681520372 345.02589520199257C526.2494110516167 412.6084117183216 509.4111640522003 509.3598751478944 481.71582999765394 551.8542572229638C454.02049594310756 594.3486392980334 396.0428468695742 572.3352621322329 358.3581646902145 548.9989291623268C320.67348251085474 525.6625961924208 310.0834848305901 506.82751547111104 300.8293555367273 439.8398589674148C291.5752262428644 372.85220246371847 274.2578414514833 247.21108706238084 313.93834407967296 227.4581779445844C353.61884670786264 207.70526882678803 456.34212525245766 277.44337868566356 491.2957681520372 345.02589520199257C526.2494110516167 412.6084117183216 509.4111640522003 509.3598751478944 481.71582999765394 551.8542572229638 "></path><path d="M476.0798017071013 354.1882434585289C505.2078374567509 410.5070072221364 491.1759649572373 491.13322674678045 468.0965199117819 526.5452118093383C445.01707486632665 561.9571968718963 396.7023673050488 543.6127159003959 365.2984654889157 524.1657717588075C333.8945636727826 504.7188276172192 325.0695656058954 489.0229270161276 317.357791194343 433.19987992971414C309.64601678279064 377.3768328433006 295.21486278997304 272.67590334218585 328.28194831346445 256.2151457440222C361.3490338369558 239.7543881458585 446.9517659574517 297.8694796949215 476.0798017071013 354.1882434585289C505.2078374567509 410.5070072221364 491.1759649572373 491.13322674678045 468.0965199117819 526.5452118093383 "></path><path d="M460.8638200033763 363.3505917150653C484.16624860309594 408.4056027259513 472.9407506034852 472.9065783456665 454.4771945671209 501.23616639571287C436.0136385307566 529.5657544457592 397.36187248173434 514.8901696685589 372.2387510288279 499.3326143552881C347.1156295759214 483.77505904201746 340.0556311224116 471.21833856114426 333.8862115931697 426.5599008920135C327.71679206392787 381.9014632228826 316.17186886967374 298.14071962199085 342.62553728846683 284.97211354345995C369.07920570726 271.803507464929 437.56139140365667 318.2955807041794 460.8638200033763 363.3505917150653C484.16624860309594 408.4056027259513 472.9407506034852 472.9065783456665 454.4771945671209 501.23616639571287 "></path><path d="M445.6478840760186 372.5129399716017C463.12470552580834 406.30419822976626 454.70558202610016 454.67992994455267 440.85791499882697 475.9271209820874C427.0102479715538 497.1743120196222 398.0214234347871 486.1676234367219 379.17908234510725 474.4994569517689C360.3367412554274 462.83129046681586 355.04174241529506 453.413750106161 350.4146777683636 419.91992185431286C345.78761312143223 386.4260936024647 337.12892072574164 323.60553590179586 356.96917203983645 313.7290813428977C376.8094233539313 303.8526267839995 428.17106262622883 338.72168171343725 445.6478840760186 372.5129399716017C463.12470552580834 406.30419822976626 454.70558202610016 454.67992994455267 440.85791499882697 475.9271209820874 "></path><path d="M430.4319176310827 381.67528822813813C442.0831319309425 404.20279373358113 436.4703829311371 436.4532815434387 427.238604912955 450.6180755684619C418.00682689477287 464.7828695934851 398.68094387026173 457.4450772048849 386.1193831438085 449.6662995482495C373.5578224173552 441.8875218916142 370.0278231906004 435.6091616511776 366.9431134259794 413.2799428166122C363.85840366135847 390.9507239820468 358.0859420642314 349.0703521816009 371.31277627362795 342.48604914233545C384.5396104830245 335.90174610306997 418.78070333122287 359.1477827226951 430.4319176310827 381.67528822813813C442.0831319309425 404.20279373358113 436.4703829311371 436.4532815434387 427.238604912955 450.6180755684619 "></path><path d="M415.2159664449359 390.8376517434636C421.0415735948658 402.1014044961851 418.2351990949631 418.2266484011139 413.61931008587203 425.3090454136255C409.00342107678097 432.3914424261371 399.34047956452537 428.722546231837 393.05969920129877 424.8331574035193C386.7789188380722 420.94376857520166 385.0139192246947 417.80458845498333 383.4715643423842 406.63997903770064C381.92920946007376 395.47536962041795 379.04297866151023 374.535183720195 385.6563957662085 371.24303220056225C392.2698128709068 367.9508806809295 409.39035929500596 379.5738989907421 415.2159664449359 390.8376517434636C421.0415735948658 402.1014044961851 418.2351990949631 418.2266484011139 413.61931008587203 425.3090454136255 "></path></g></svg>